<?xml version="1.0" encoding="UTF-8"?><svg xmlns="http://www.w3.org/2000/svg" xmlns:xlink="http://www.w3.org/1999/xlink" contentScriptType="text/ecmascript" width="375" zoomAndPan="magnify" contentStyleType="text/css" viewBox="0 0 375 374.999991" height="374.999991" preserveAspectRatio="xMidYMid meet" version="1.0"><defs><clipPath id="clip-0"><path d="M 0 19 L 375 19 L 375 374.8125 L 0 374.8125 Z M 0 19 " clip-rule="nonzero"/></clipPath><clipPath id="clip-1"><path d="M 0 17.8125 L 375 17.8125 L 375 374 L 0 374 Z M 0 17.8125 " clip-rule="nonzero"/></clipPath></defs><g clip-path="url(#clip-0)"><path fill="rgb(100%, 100%, 100%)" d="M 187.988281 19.046875 L 245.757812 136.101562 L 375 154.875 L 281.457031 246.050781 L 303.605469 374.699219 L 187.988281 313.964844 L 72.289062 374.699219 L 94.367188 246.050781 L 0.898438 154.875 L 130.140625 136.101562 Z M 187.988281 19.046875 " fill-opacity="1" fill-rule="nonzero"/></g><g clip-path="url(#clip-1)"><path fill="rgb(100%, 100%, 100%)" d="M 187.089844 17.925781 L 244.9375 134.980469 L 374.175781 153.753906 L 280.632812 244.929688 L 302.710938 373.578125 L 187.089844 312.84375 L 71.46875 373.578125 L 93.542969 244.929688 L 0 153.753906 L 129.242188 134.980469 Z M 187.089844 17.925781 " fill-opacity="1" fill-rule="nonzero"/><path fill="rgb(100%, 100%, 100%)" d="M 187.089844 17.925781 L 244.9375 134.980469 L 374.175781 153.753906 L 280.632812 244.929688 L 302.710938 373.578125 L 187.089844 312.84375 L 71.46875 373.578125 L 93.542969 244.929688 L 0 153.753906 L 129.242188 134.980469 Z M 187.089844 17.925781 " fill-opacity="1" fill-rule="nonzero"/><path fill="rgb(100%, 100%, 100%)" d="M 187.089844 17.925781 L 244.9375 134.980469 L 374.175781 153.753906 L 280.632812 244.929688 L 302.710938 373.578125 L 187.089844 312.84375 L 71.46875 373.578125 L 93.542969 244.929688 L 0 153.753906 L 129.242188 134.980469 Z M 187.089844 17.925781 " fill-opacity="1" fill-rule="nonzero"/></g></svg>