<?xml version="1.0" encoding="UTF-8"?><svg xmlns="http://www.w3.org/2000/svg" xmlns:xlink="http://www.w3.org/1999/xlink" width="375" zoomAndPan="magnify" viewBox="0 0 375 374.999991" height="374.999991" preserveAspectRatio="xMidYMid meet" version="1.0"><defs><clipPath id="clip-0"><path d="M 80.261719 115.917969 L 305.261719 115.917969 L 305.261719 265.917969 L 80.261719 265.917969 Z M 80.261719 115.917969 " clip-rule="nonzero"/></clipPath><clipPath id="clip-1"><path d="M 183 115.917969 L 305.261719 115.917969 L 305.261719 198 L 183 198 Z M 183 115.917969 " clip-rule="nonzero"/></clipPath><clipPath id="clip-2"><path d="M 188 116 L 305.261719 116 L 305.261719 198 L 188 198 Z M 188 116 " clip-rule="nonzero"/></clipPath><clipPath id="clip-3"><path d="M 80.261719 115.917969 L 203 115.917969 L 203 198 L 80.261719 198 Z M 80.261719 115.917969 " clip-rule="nonzero"/></clipPath><clipPath id="clip-4"><path d="M 80.261719 115.917969 L 199 115.917969 L 199 195 L 80.261719 195 Z M 80.261719 115.917969 " clip-rule="nonzero"/></clipPath><clipPath id="clip-5"><path d="M 183 184 L 305.261719 184 L 305.261719 265.917969 L 183 265.917969 Z M 183 184 " clip-rule="nonzero"/></clipPath><clipPath id="clip-6"><path d="M 187 186 L 305.261719 186 L 305.261719 265.917969 L 187 265.917969 Z M 187 186 " clip-rule="nonzero"/></clipPath><clipPath id="clip-7"><path d="M 80.261719 184 L 203 184 L 203 265.917969 L 80.261719 265.917969 Z M 80.261719 184 " clip-rule="nonzero"/></clipPath><clipPath id="clip-8"><path d="M 80.261719 184 L 197 184 L 197 265.917969 L 80.261719 265.917969 Z M 80.261719 184 " clip-rule="nonzero"/></clipPath><clipPath id="clip-9"><path d="M 80.261719 170 L 305.261719 170 L 305.261719 208 L 80.261719 208 Z M 80.261719 170 " clip-rule="nonzero"/></clipPath><clipPath id="clip-10"><path d="M 174 115.917969 L 212 115.917969 L 212 265.917969 L 174 265.917969 Z M 174 115.917969 " clip-rule="nonzero"/></clipPath><clipPath id="clip-11"><path d="M 182 116 L 204 116 L 204 265.917969 L 182 265.917969 Z M 182 116 " clip-rule="nonzero"/></clipPath><clipPath id="clip-12"><path d="M 80.261719 179 L 305.261719 179 L 305.261719 200 L 80.261719 200 Z M 80.261719 179 " clip-rule="nonzero"/></clipPath></defs><g clip-path="url(#clip-0)"><path fill="rgb(11.759949%, 29.798889%, 47.059631%)" d="M 305.226562 265.324219 L 80.703125 265.324219 L 80.703125 115.988281 L 305.226562 115.988281 L 305.226562 265.324219 " fill-opacity="1" fill-rule="nonzero"/></g><g clip-path="url(#clip-1)"><path fill="rgb(100%, 100%, 100%)" d="M 281.011719 115.988281 L 305.199219 115.988281 L 305.199219 132.445312 L 207.695312 197.238281 L 183.503906 197.238281 L 183.503906 184.019531 L 281.011719 115.988281 " fill-opacity="1" fill-rule="nonzero"/></g><g clip-path="url(#clip-2)"><path fill="rgb(70.588684%, 12.548828%, 14.898682%)" d="M 188.347656 197.726562 L 188.339844 187.511719 L 289.65625 116.003906 L 305.019531 116.003906 L 188.347656 197.726562 " fill-opacity="1" fill-rule="nonzero"/></g><g clip-path="url(#clip-3)"><path fill="rgb(100%, 100%, 100%)" d="M 104.894531 115.988281 L 80.703125 115.988281 L 80.703125 132.445312 L 178.210938 197.238281 L 202.398438 197.238281 L 202.398438 184.019531 L 104.894531 115.988281 " fill-opacity="1" fill-rule="nonzero"/></g><g clip-path="url(#clip-4)"><path fill="rgb(70.588684%, 12.548828%, 14.898682%)" d="M 80.703125 115.988281 L 80.695312 126.207031 L 182.789062 194.460938 L 198.148438 194.460938 L 80.703125 115.988281 " fill-opacity="1" fill-rule="nonzero"/></g><g clip-path="url(#clip-5)"><path fill="rgb(100%, 100%, 100%)" d="M 281.011719 265.308594 L 305.199219 265.308594 L 305.199219 248.855469 L 207.695312 184.058594 L 183.503906 184.058594 L 183.503906 197.28125 L 281.011719 265.308594 " fill-opacity="1" fill-rule="nonzero"/></g><g clip-path="url(#clip-6)"><path fill="rgb(70.588684%, 12.548828%, 14.898682%)" d="M 305.199219 265.308594 L 305.210938 255.09375 L 203.113281 186.835938 L 187.753906 186.835938 L 305.199219 265.308594 " fill-opacity="1" fill-rule="nonzero"/></g><g clip-path="url(#clip-7)"><path fill="rgb(100%, 100%, 100%)" d="M 104.894531 265.308594 L 80.703125 265.308594 L 80.703125 248.855469 L 178.210938 184.058594 L 202.398438 184.058594 L 202.398438 197.28125 L 104.894531 265.308594 " fill-opacity="1" fill-rule="nonzero"/></g><g clip-path="url(#clip-8)"><path fill="rgb(70.588684%, 12.548828%, 14.898682%)" d="M 196.511719 184.898438 L 196.515625 195.117188 L 95.589844 265.625 L 80.230469 265.625 L 196.511719 184.898438 " fill-opacity="1" fill-rule="nonzero"/></g><g clip-path="url(#clip-9)"><path fill="rgb(100%, 100%, 100%)" d="M 305.226562 207.546875 L 80.703125 207.546875 L 80.703125 170.828125 L 305.226562 170.828125 L 305.226562 207.546875 " fill-opacity="1" fill-rule="nonzero"/></g><g clip-path="url(#clip-10)"><path fill="rgb(100%, 100%, 100%)" d="M 174.539062 265.820312 L 174.539062 115.992188 L 211.304688 115.992188 L 211.304688 265.820312 L 174.539062 265.820312 " fill-opacity="1" fill-rule="nonzero"/></g><g clip-path="url(#clip-11)"><path fill="rgb(70.588684%, 12.548828%, 14.898682%)" d="M 182.90625 265.851562 L 182.90625 116.023438 L 203.023438 116.023438 L 203.023438 265.851562 L 182.90625 265.851562 " fill-opacity="1" fill-rule="nonzero"/></g><g clip-path="url(#clip-12)"><path fill="rgb(70.588684%, 12.548828%, 14.898682%)" d="M 305.226562 199.234375 L 80.703125 199.234375 L 80.703125 179.144531 L 305.226562 179.144531 L 305.226562 199.234375 " fill-opacity="1" fill-rule="nonzero"/></g></svg>