<?xml version="1.0" encoding="UTF-8"?><svg xmlns="http://www.w3.org/2000/svg" xmlns:xlink="http://www.w3.org/1999/xlink" contentScriptType="text/ecmascript" width="810" zoomAndPan="magnify" contentStyleType="text/css" viewBox="0 0 810 809.999993" height="809.999993" preserveAspectRatio="xMidYMid meet" version="1.0"><defs><clipPath id="clip-0"><path d="M 243 244.214844 L 475 244.214844 L 475 476 L 243 476 Z M 243 244.214844 " clip-rule="nonzero"/></clipPath><clipPath id="clip-1"><path d="M 465 466 L 565 466 L 565 565.964844 L 465 565.964844 Z M 465 466 " clip-rule="nonzero"/></clipPath></defs><g clip-path="url(#clip-0)"><path fill="rgb(49.409485%, 85.099792%, 34.118652%)" d="M 358.855469 244.234375 C 295.128906 244.234375 243.289062 296.105469 243.289062 359.871094 C 243.289062 423.636719 295.128906 475.507812 358.855469 475.507812 C 422.582031 475.507812 474.425781 423.636719 474.425781 359.871094 C 474.425781 296.105469 422.582031 244.234375 358.855469 244.234375 Z M 358.855469 457.335938 C 305.148438 457.335938 261.449219 413.613281 261.449219 359.871094 C 261.449219 306.132812 305.148438 262.410156 358.855469 262.410156 C 412.566406 262.410156 456.261719 306.132812 456.261719 359.871094 C 456.261719 413.613281 412.566406 457.335938 358.855469 457.335938 Z M 358.855469 457.335938 " fill-opacity="1" fill-rule="nonzero"/></g><path fill="rgb(49.409485%, 85.099792%, 34.118652%)" d="M 474.636719 459.515625 L 454.238281 439.105469 C 449.171875 445.203125 443.53125 450.808594 437.40625 455.839844 L 458.121094 476.570312 C 459.4375 472.800781 461.59375 469.261719 464.597656 466.257812 L 465.175781 465.675781 C 467.910156 462.945312 471.125 460.867188 474.636719 459.515625 Z M 474.636719 459.515625 " fill-opacity="1" fill-rule="nonzero"/><g clip-path="url(#clip-1)"><path fill="rgb(49.409485%, 85.099792%, 34.118652%)" d="M 497.902344 471.660156 C 494.347656 468.105469 489.601562 466.148438 484.53125 466.148438 C 479.460938 466.148438 474.714844 468.105469 471.160156 471.660156 L 470.582031 472.242188 C 467.027344 475.796875 465.070312 480.546875 465.070312 485.621094 C 465.070312 490.691406 467.027344 495.445312 470.582031 499 L 532.046875 560.503906 C 535.601562 564.058594 540.347656 566.015625 545.417969 566.015625 C 550.488281 566.015625 555.238281 564.058594 558.789062 560.503906 L 559.371094 559.921875 C 566.742188 552.542969 566.742188 540.539062 559.371094 533.164062 Z M 497.902344 471.660156 " fill-opacity="1" fill-rule="nonzero"/></g></svg>